<?xml version="1.0" encoding="UTF-8" standalone="no"?>
<!DOCTYPE svg PUBLIC "-//W3C//DTD SVG 1.1//EN" "http://www.w3.org/Graphics/SVG/1.1/DTD/svg11.dtd">
<svg width="100%" height="100%" viewBox="0 0 180 70" version="1.1" xmlns="http://www.w3.org/2000/svg" xmlns:xlink="http://www.w3.org/1999/xlink" xml:space="preserve" style="fill-rule:evenodd;clip-rule:evenodd;stroke-linejoin:round;stroke-miterlimit:1.41421;">
    <g transform="matrix(0.325095,-2.00478e-32,-1.75418e-32,0.325095,-140.068,-12.2243)">
        <g transform="matrix(1,0,0,1,394.458,-273.981)">
            <path d="M321.141,348.013C320.565,344.989 322.005,343.261 325.029,343.261L342.165,343.261C344.757,343.261 346.629,344.557 346.917,347.005L355.125,407.053C355.413,408.493 356.565,408.493 356.853,407.053L366.501,347.005C366.933,344.557 368.661,343.261 371.253,343.261L383.637,343.261C386.229,343.261 387.957,344.557 388.389,347.005L398.037,407.053C398.325,408.493 399.477,408.493 399.765,407.053L407.973,347.005C408.261,344.557 410.133,343.261 412.725,343.261L429.861,343.261C432.885,343.261 434.325,344.989 433.749,348.013L416.037,440.317C415.605,442.765 413.877,444.061 411.285,444.061L390.981,444.061C388.389,444.061 386.805,442.765 386.229,440.317L378.309,404.893C378.021,403.453 376.869,403.453 376.581,404.893L368.661,440.317C368.085,442.765 366.501,444.061 363.909,444.061L343.605,444.061C341.013,444.061 339.285,442.765 338.853,440.317L321.141,348.013Z" style="fill:white;fill-rule:nonzero;"/>
        </g>
        <g transform="matrix(1,0,0,1,394.458,-273.981)">
            <path d="M439.221,343.261C436.485,343.261 434.901,344.701 434.901,347.581L434.901,411.661C434.901,421.165 436.917,446.653 471.045,446.653C505.173,446.653 507.189,421.165 507.189,411.661L507.189,347.581C507.189,344.701 505.749,343.261 502.869,343.261L486.741,343.261C484.005,343.261 482.421,344.701 482.421,347.581L482.421,404.029C482.421,415.117 481.701,421.885 471.045,421.885C460.389,421.885 459.669,415.117 459.669,404.029L459.669,347.581C459.669,344.701 458.229,343.261 455.349,343.261L439.221,343.261Z" style="fill:white;fill-rule:nonzero;"/>
        </g>
        <g transform="matrix(1,0,0,1,394.458,-273.981)">
            <path d="M517.845,343.261C514.965,343.405 513.525,344.845 513.525,347.725L513.525,439.741C513.525,442.477 515.109,444.061 517.845,444.061L553.413,444.061C580.485,444.061 588.405,435.421 588.405,417.565C588.405,408.637 584.085,401.437 578.181,398.701C584.085,392.221 585.525,382.717 585.525,377.821C585.525,354.205 575.157,343.261 548.085,343.261L517.845,343.261ZM542.613,387.613C539.877,387.613 538.293,386.173 538.293,383.293L538.293,372.349C538.293,369.469 539.877,368.029 542.613,368.029L550.389,368.029C557.301,368.029 560.757,368.893 560.757,377.821C560.757,386.749 557.301,387.613 550.389,387.613L542.613,387.613ZM542.469,423.613C539.733,423.613 538.149,422.173 538.149,419.293L538.149,412.669C538.149,409.789 539.733,408.349 542.469,408.349L551.829,408.349C558.741,408.349 561.909,409.357 561.909,416.125C561.909,422.893 558.453,423.613 551.541,423.613L542.469,423.613Z" style="fill:white;fill-rule:nonzero;"/>
        </g>
        <g transform="matrix(1.11799,0,0,0.738614,328.57,-96.3868)">
            <path d="M237.372,224.277C239.766,224.288 242.16,224.364 244.551,224.565C246.422,224.723 248.291,224.954 250.151,225.307C251.474,225.559 252.794,225.872 254.1,226.283C255.274,226.653 256.439,227.101 257.576,227.681C259.031,228.422 260.456,229.377 261.716,230.718C262.56,231.616 263.325,232.695 263.929,233.964C264.342,234.831 264.679,235.782 264.917,236.789C265.096,237.546 265.219,238.333 265.285,239.131C265.332,239.703 265.35,240.281 265.34,240.858C265.332,241.293 265.308,241.726 265.27,242.157C265.005,245.131 264.052,247.858 262.895,250.252C262.68,250.699 262.456,251.136 262.225,251.564C261.915,252.141 261.592,252.703 261.26,253.252C260.824,253.973 260.372,254.673 259.909,255.355C259.313,256.23 258.699,257.077 258.072,257.9C257.213,259.028 256.331,260.117 255.429,261.166C254.15,262.655 252.84,264.081 251.511,265.464C249.82,267.222 248.098,268.911 246.356,270.552C243.961,272.81 241.529,274.977 239.076,277.086C237.605,278.349 236.126,279.589 234.642,280.815C234.178,281.199 233.71,281.576 233.244,281.953C231.829,283.099 230.408,284.228 228.984,285.348C228.24,285.93 227.496,286.509 226.751,287.089C226.75,287.09 226.758,287.084 226.756,287.085C226.023,287.658 226.023,287.657 225.291,288.231C225.29,288.233 225.298,288.226 225.296,288.228C225.055,288.418 224.813,288.608 224.571,288.799L224.576,288.795C223.862,289.359 223.863,289.359 223.149,289.925C223.148,289.926 223.156,289.919 223.154,289.921C222.919,290.108 222.683,290.296 222.448,290.484C222.446,290.485 222.454,290.478 222.453,290.48C222.219,290.666 221.986,290.853 221.752,291.04L221.758,291.036C221.526,291.222 221.295,291.407 221.063,291.593C221.062,291.595 221.07,291.588 221.069,291.589C220.614,291.956 220.159,292.323 219.705,292.691C219.259,293.054 218.814,293.417 218.369,293.78C218.367,293.782 218.376,293.774 218.374,293.776C218.153,293.957 217.932,294.139 217.711,294.32C217.709,294.322 217.718,294.314 217.716,294.316C217.497,294.496 217.278,294.677 217.059,294.857L217.064,294.853C216.634,295.209 216.203,295.566 215.773,295.924C215.771,295.925 215.78,295.918 215.779,295.919C215.565,296.097 215.352,296.275 215.139,296.453C215.137,296.455 215.147,296.447 215.145,296.448C214.52,296.972 213.897,297.497 213.274,298.025C213.272,298.026 213.282,298.018 213.28,298.02C213.074,298.194 212.869,298.369 212.664,298.543L212.67,298.538C212.267,298.882 211.865,299.227 211.462,299.572C211.46,299.574 211.47,299.565 211.468,299.567C211.073,299.908 210.679,300.249 210.284,300.591L210.291,300.585C210.095,300.755 209.899,300.925 209.704,301.095C209.702,301.097 209.712,301.087 209.71,301.089C209.138,301.588 208.567,302.088 207.997,302.591L208.003,302.585C207.816,302.751 207.628,302.918 207.44,303.084C207.438,303.086 207.448,303.076 207.446,303.078C207.26,303.244 207.074,303.409 206.888,303.575C206.886,303.577 206.897,303.567 206.895,303.569C206.352,304.054 205.81,304.542 205.269,305.032C205.266,305.034 205.278,305.023 205.275,305.025C204.923,305.346 204.57,305.668 204.218,305.99L204.225,305.983C204.05,306.144 203.875,306.304 203.701,306.465C203.698,306.467 203.71,306.456 203.708,306.458C202.869,307.233 202.034,308.015 201.201,308.803C201.198,308.805 201.211,308.793 201.208,308.796C199.961,309.983 198.722,311.187 197.491,312.411C197.488,312.414 197.502,312.4 197.499,312.403C197.35,312.552 197.201,312.701 197.052,312.851C197.049,312.853 197.063,312.839 197.06,312.842C195.81,314.102 194.571,315.384 193.343,316.693C193.34,316.696 193.356,316.679 193.353,316.683C192.481,317.619 191.615,318.567 190.759,319.536C189.379,321.098 188.025,322.712 186.705,324.387C185.54,325.866 184.404,327.399 183.316,329.009C182.627,330.029 181.958,331.08 181.32,332.172C180.729,333.185 180.163,334.233 179.642,335.33C179.399,335.841 179.166,336.363 178.946,336.896C178.783,337.291 178.628,337.693 178.481,338.103C178.375,338.402 178.273,338.705 178.177,339.012C178.089,339.292 178.007,339.576 177.931,339.864C177.536,341.353 177.281,343.019 177.519,344.615C177.563,344.917 177.625,345.213 177.702,345.5C177.885,346.179 178.152,346.8 178.461,347.362C178.927,348.213 179.49,348.938 180.082,349.58C180.932,350.503 181.856,351.267 182.802,351.938C183.835,352.67 184.901,353.293 185.981,353.846C187.216,354.479 188.472,355.021 189.737,355.503C191.737,356.265 193.762,356.871 195.795,357.396C195.797,357.397 195.785,357.394 195.787,357.394C196.876,357.671 197.968,357.925 199.062,358.155C201.143,358.593 203.232,358.952 205.324,359.256C208.046,359.652 210.774,359.954 213.505,360.193C215.611,360.377 217.718,360.52 219.827,360.639C219.828,360.639 219.821,360.639 219.823,360.639C220.011,360.649 220.2,360.66 220.389,360.67C220.39,360.67 220.383,360.67 220.385,360.67C220.573,360.679 220.76,360.689 220.948,360.699C220.949,360.699 220.943,360.699 220.944,360.699C221.681,360.735 222.417,360.769 223.154,360.801C223.155,360.801 223.149,360.801 223.151,360.801C223.333,360.808 223.515,360.816 223.697,360.823L223.692,360.823C224.752,360.864 225.812,360.902 226.873,360.937L226.868,360.937C228.192,360.977 229.516,361.012 230.839,361.044L230.837,361.044C231.15,361.051 231.463,361.057 231.776,361.064C231.776,361.064 231.773,361.064 231.774,361.064C233.46,361.1 235.149,361.132 236.838,361.17C237.32,361.182 237.802,361.194 238.283,361.207C239.114,361.233 239.945,361.26 240.776,361.306C241.345,361.337 241.915,361.375 242.483,361.438C242.866,361.481 243.248,361.535 243.628,361.621C244.126,361.733 244.63,361.922 245.065,362.321C245.212,362.456 245.349,362.603 245.477,362.778C245.55,362.879 245.618,362.987 245.684,363.098C245.735,363.186 245.782,363.281 245.827,363.376C246.175,364.102 246.341,365.006 246.287,365.901C246.265,366.271 246.203,366.634 246.111,366.978C246.003,367.378 245.846,367.754 245.656,368.076C245.539,368.273 245.502,368.315 245.389,368.461L243.652,369.313L242.971,368.793C242.898,368.779 242.825,368.767 242.752,368.756C242.366,368.704 241.979,368.676 241.591,368.656C241.096,368.631 240.6,368.618 240.105,368.61C238.751,368.588 237.396,368.599 236.042,368.609L236.045,368.609C232.262,368.643 228.475,368.696 224.69,368.656C218.673,368.592 212.653,368.37 206.648,367.745C203.678,367.437 200.712,367.03 197.758,366.469C195.232,365.989 192.713,365.397 190.219,364.623C188.502,364.09 186.795,363.47 185.114,362.718C183.564,362.025 182.033,361.219 180.552,360.237C178.733,359.032 176.973,357.555 175.445,355.621C174.475,354.394 173.604,352.977 172.919,351.366C172.455,350.276 172.078,349.103 171.81,347.872C171.617,346.986 171.479,346.072 171.399,345.147C171.342,344.483 171.314,343.814 171.315,343.144C171.315,342.634 171.332,342.124 171.364,341.616C171.584,338.111 172.52,334.797 173.721,331.816C173.936,331.282 174.161,330.757 174.393,330.24C174.719,329.515 175.06,328.806 175.414,328.112C175.92,327.117 176.452,326.151 177.001,325.211C177.758,323.916 178.548,322.668 179.362,321.456C180.364,319.965 181.402,318.532 182.461,317.135C183.884,315.259 185.357,313.468 186.854,311.727C188.839,309.417 190.873,307.202 192.937,305.055C195.662,302.218 198.441,299.499 201.252,296.86C202.539,295.651 203.832,294.46 205.132,293.283C205.722,292.749 206.312,292.215 206.906,291.689C208.744,290.059 210.592,288.451 212.449,286.868C215.151,284.564 217.872,282.308 220.607,280.091C222.314,278.706 224.028,277.346 225.738,275.975C225.741,275.973 225.73,275.982 225.732,275.98C225.973,275.786 226.213,275.592 226.454,275.398L226.448,275.404C226.918,275.023 227.387,274.642 227.857,274.26C228.315,273.885 228.773,273.51 229.23,273.134C229.232,273.132 229.221,273.142 229.223,273.14C229.449,272.953 229.676,272.765 229.902,272.578L229.895,272.584C230.337,272.217 230.778,271.849 231.219,271.481C231.411,271.32 232.092,270.753 231.862,270.944C233.105,269.9 234.345,268.848 235.578,267.778C236.72,266.787 237.856,265.78 238.988,264.762C238.991,264.759 238.975,264.773 238.978,264.77C240.024,263.822 241.066,262.863 242.101,261.889C242.105,261.886 242.087,261.902 242.091,261.899C242.886,261.145 243.678,260.386 244.465,259.613C246.718,257.397 248.935,255.087 251.059,252.593C251.854,251.66 252.637,250.705 253.4,249.713C253.404,249.708 253.386,249.731 253.39,249.727C253.764,249.237 254.134,248.74 254.496,248.23C254.982,247.545 255.457,246.838 255.91,246.102C256.326,245.427 256.725,244.726 257.091,243.986C257.315,243.533 257.527,243.065 257.715,242.576C257.863,242.191 257.999,241.79 258.101,241.371C258.153,241.155 258.198,240.933 258.219,240.705C258.229,240.606 258.242,240.482 258.215,240.385C258.199,240.329 258.176,240.277 258.152,240.229C258.112,240.147 258.067,240.071 258.02,239.998C257.875,239.777 257.709,239.587 257.539,239.412C257.25,239.117 256.941,238.867 256.626,238.643C256.226,238.358 255.814,238.113 255.397,237.894C254.577,237.463 253.735,237.125 252.889,236.838C251.375,236.323 249.838,235.97 248.298,235.697C246.54,235.385 244.773,235.181 243.006,235.04C241.116,234.89 239.224,234.814 237.332,234.786C235.329,234.757 233.327,234.786 231.324,234.849C228.792,234.928 226.261,235.066 223.731,235.247L223.736,235.247C223.226,235.284 222.716,235.323 222.206,235.363C222.204,235.364 222.213,235.363 222.211,235.363C222.039,235.377 221.866,235.391 221.693,235.405C221.692,235.405 221.7,235.404 221.699,235.404C221.006,235.462 220.315,235.522 219.623,235.584C219.621,235.584 219.629,235.583 219.627,235.583C219.452,235.599 219.276,235.616 219.1,235.632L219.105,235.631C218.928,235.648 218.752,235.665 218.576,235.681C218.574,235.681 218.582,235.681 218.58,235.681C218.227,235.715 217.874,235.749 217.521,235.783C217.519,235.784 217.527,235.783 217.525,235.783C217.347,235.801 217.169,235.819 216.99,235.837C216.989,235.837 216.996,235.836 216.995,235.836C213.634,236.179 210.275,236.581 206.919,237.027C202.425,237.623 197.935,238.29 193.449,239.024C191.112,239.406 188.775,239.804 186.439,240.217C184.872,240.495 183.306,240.781 181.739,241.066C181.738,241.066 181.744,241.065 181.743,241.065C180.175,241.353 178.608,241.645 177.041,241.942C177.039,241.942 177.045,241.941 177.044,241.941C176.261,242.09 175.478,242.241 174.696,242.391C174.694,242.392 174.7,242.391 174.699,242.391C174.308,242.467 173.916,242.543 173.525,242.619C173.524,242.619 173.529,242.618 173.528,242.618C173.137,242.695 172.747,242.772 172.356,242.848L172.359,242.848C171.58,243.002 170.802,243.156 170.023,243.312C170.022,243.312 170.027,243.311 170.026,243.311C169.637,243.389 169.249,243.467 168.86,243.546C168.859,243.546 168.864,243.545 168.863,243.545C168.475,243.623 168.087,243.702 167.699,243.781L167.702,243.78C166.546,244.016 165.39,244.254 164.234,244.493C164.233,244.493 164.238,244.492 164.237,244.493C163.853,244.573 163.469,244.653 163.086,244.733L163.088,244.732C162.706,244.813 162.323,244.893 161.941,244.973C161.94,244.974 161.944,244.973 161.943,244.973C161.562,245.053 161.181,245.134 160.799,245.215C160.798,245.215 160.803,245.214 160.802,245.214C160.422,245.295 160.042,245.376 159.662,245.457C159.661,245.457 159.666,245.456 159.665,245.456C159.286,245.537 158.908,245.618 158.529,245.7C158.529,245.7 158.533,245.699 158.532,245.699C158.155,245.78 157.778,245.862 157.401,245.943L157.403,245.942C156.655,246.105 155.907,246.267 155.159,246.431C155.158,246.431 155.162,246.43 155.161,246.43C154.789,246.512 154.417,246.593 154.045,246.675C154.044,246.675 154.048,246.674 154.047,246.675C153.31,246.837 152.572,247.001 151.834,247.165L151.837,247.164C151.47,247.246 151.104,247.328 150.738,247.409C150.737,247.41 150.741,247.409 150.74,247.409C150.376,247.491 150.012,247.572 149.647,247.654C149.647,247.654 149.65,247.654 149.649,247.654C148.568,247.898 147.496,248.141 146.415,248.387L146.417,248.387C146.061,248.468 145.706,248.55 145.351,248.631C145.35,248.631 145.353,248.631 145.353,248.631C143.958,248.952 142.564,249.275 141.17,249.601L141.171,249.6C140.49,249.76 139.808,249.92 139.127,250.081C139.126,250.081 139.131,250.08 139.13,250.08C138.459,250.239 137.788,250.399 137.118,250.556C137.117,250.557 137.122,250.555 137.121,250.556C136.462,250.712 135.804,250.868 135.145,251.025C135.144,251.025 135.15,251.023 135.149,251.024C133.253,251.477 131.358,251.934 129.463,252.395L129.466,252.394C127.701,252.826 125.936,253.261 124.171,253.699L124.174,253.698C122.556,254.102 120.938,254.509 119.32,254.918C119.319,254.919 119.323,254.918 119.322,254.918C118.818,255.046 118.313,255.175 117.809,255.303L117.811,255.302C116.86,255.546 115.908,255.79 114.957,256.035C114.956,256.036 114.96,256.035 114.959,256.035C114.513,256.15 114.066,256.266 113.62,256.382C113.619,256.382 113.623,256.381 113.622,256.381C113.196,256.492 112.77,256.603 112.344,256.714L112.346,256.713C111.198,257.014 110.054,257.314 108.904,257.618C108.904,257.618 108.907,257.617 108.906,257.618C108.255,257.791 107.604,257.964 106.952,258.138L106.954,258.137C106.664,258.215 106.374,258.293 106.084,258.371C106.083,258.371 106.087,258.37 106.087,258.37C105.582,258.506 105.078,258.641 104.574,258.778C104.174,258.886 102.974,259.219 103.374,259.104L102.498,259.344L101.78,259.543L99.992,258.971L98.987,256.684L99.358,253.995C99.864,253.482 100.336,252.882 100.877,252.457C101.094,252.286 101.356,252.309 101.595,252.236C101.888,252.146 102.182,252.057 102.475,251.968C103.38,251.693 104.286,251.421 105.192,251.149C107.278,250.524 109.365,249.91 111.453,249.301C116.55,247.816 121.652,246.37 126.758,244.96C130.581,243.905 134.405,242.868 138.233,241.861C146.985,239.557 155.751,237.371 164.531,235.326C170.302,233.982 176.081,232.7 181.866,231.499C183.131,231.237 184.397,230.983 185.663,230.732C188.012,230.265 190.362,229.812 192.714,229.376C200.628,227.909 208.557,226.623 216.506,225.68C221.38,225.102 226.262,224.644 231.149,224.416C232.62,224.348 234.091,224.308 235.562,224.287C236.166,224.28 236.769,224.277 237.372,224.277ZM242.68,368.581C242.777,368.655 242.776,368.656 242.875,368.722L242.886,368.728L242.613,368.52C242.636,368.54 242.658,368.561 242.68,368.581ZM241.529,365.815C241.559,366.162 241.555,366.239 241.622,366.574C241.667,366.805 241.726,367.015 241.801,367.227C241.832,367.315 241.868,367.398 241.902,367.483L241.528,365.727C241.528,365.756 241.529,365.786 241.529,365.815ZM242.171,363.146C242.03,363.384 242.015,363.393 241.9,363.652C241.713,364.07 241.6,364.555 241.548,365.052C241.541,365.12 241.539,365.189 241.535,365.258L242.286,362.983C242.247,363.037 242.209,363.091 242.171,363.146Z" style="fill:white;fill-rule:nonzero;"/>
        </g>
        <path d="M649.671,111.537C649.981,111.543 650.291,111.56 650.6,111.591C651.478,111.68 652.345,111.87 653.189,112.131C654.193,112.442 655.166,112.853 656.099,113.335C657.135,113.869 658.124,114.492 659.062,115.183C659.961,115.845 660.814,116.57 661.613,117.351C663.064,118.771 664.35,120.386 665.307,122.181C665.454,122.456 665.593,122.736 665.722,123.02C666.51,124.748 666.974,126.681 666.704,128.582C666.661,128.88 666.601,129.175 666.523,129.465C666.413,129.87 666.266,130.265 666.084,130.644C665.85,131.13 665.555,131.58 665.214,131.998L634.665,168.404C634.603,168.473 634.543,168.544 634.479,168.611C634.35,168.745 634.212,168.869 634.066,168.983C633.554,169.384 632.946,169.656 632.306,169.771C631.941,169.836 631.567,169.85 631.198,169.813C630.829,169.776 630.465,169.687 630.121,169.549C629.517,169.309 628.975,168.92 628.554,168.426C628.193,168.002 627.923,167.503 627.765,166.969C627.633,166.524 627.58,166.057 627.608,165.594C627.635,165.131 627.744,164.674 627.928,164.248C628.026,164.021 628.062,163.969 628.183,163.754L628.23,163.683C628.204,163.524 628.159,163.369 628.107,163.218C628.038,163.013 627.953,162.813 627.86,162.617C627.557,161.984 627.164,161.395 626.732,160.843C626.056,159.979 625.272,159.201 624.424,158.508C623.576,157.814 622.656,157.199 621.671,156.717C621.151,156.462 620.611,156.242 620.051,156.091C619.709,155.998 619.354,155.926 618.998,155.923L618.983,155.923L618.937,155.967L618.723,156.145C618.647,156.199 618.574,156.256 618.496,156.307C618.342,156.41 618.18,156.502 618.012,156.583C617.426,156.865 616.772,157 616.121,156.974C615.657,156.956 615.197,156.856 614.766,156.68C614.422,156.54 614.098,156.351 613.806,156.121C613.368,155.776 613.004,155.34 612.743,154.847C612.482,154.353 612.327,153.807 612.289,153.25C612.264,152.879 612.29,152.505 612.368,152.142C612.465,151.687 612.642,151.251 612.888,150.857C613.019,150.647 613.063,150.601 613.215,150.406C623.413,138.253 633.532,126.032 643.81,113.946C644.132,113.581 644.485,113.247 644.878,112.958C645.692,112.356 646.637,111.95 647.624,111.734C648.121,111.625 648.625,111.568 649.133,111.544C649.312,111.538 649.491,111.535 649.671,111.537ZM619.278,155.622C619.294,155.606 619.308,155.59 619.323,155.573L619.327,155.569C619.31,155.587 619.294,155.604 619.278,155.622Z" style="fill:white;"/>
        <path d="M619.094,147.923C619.45,147.929 619.805,147.949 620.159,147.988C621.041,148.084 621.911,148.281 622.756,148.549C623.719,148.854 624.653,149.251 625.55,149.714C626.815,150.365 628.011,151.147 629.128,152.026C630.159,152.836 631.125,153.729 632.007,154.699C633.313,156.135 634.453,157.75 635.244,159.529C636.018,161.268 636.458,163.214 636.149,165.115C636.101,165.414 636.034,165.71 635.948,166C635.844,166.353 635.712,166.699 635.552,167.031C635.338,167.473 635.076,167.892 634.77,168.276C634.428,168.705 634.032,169.09 633.595,169.421C633.016,169.859 632.367,170.199 631.683,170.438C630.839,170.732 629.947,170.871 629.055,170.886C628.123,170.903 627.192,170.786 626.284,170.578C625.046,170.295 623.848,169.844 622.708,169.287C621.395,168.645 620.152,167.86 618.992,166.972C617.872,166.113 616.823,165.156 615.873,164.112C614.567,162.675 613.426,161.06 612.635,159.281C611.862,157.542 611.422,155.597 611.731,153.696C611.779,153.397 611.846,153.101 611.932,152.811C612.036,152.457 612.168,152.112 612.328,151.78C612.518,151.387 612.745,151.013 613.008,150.666C613.34,150.227 613.727,149.831 614.157,149.489C614.689,149.066 615.285,148.727 615.917,148.477C616.5,148.247 617.111,148.093 617.732,148.007C618.005,147.97 618.279,147.947 618.554,147.933C618.734,147.926 618.914,147.923 619.094,147.923Z" style="fill:white;"/>
        <path d="M655.251,104.833C655.563,104.838 655.874,104.854 656.184,104.884C657.067,104.97 657.937,105.159 658.784,105.419C659.793,105.729 660.769,106.14 661.707,106.623C663.017,107.298 664.253,108.113 665.405,109.031C666.429,109.846 667.388,110.744 668.262,111.717C669.526,113.126 670.63,114.705 671.401,116.44C672.175,118.179 672.615,120.124 672.306,122.025C672.257,122.324 672.191,122.62 672.105,122.91C672.001,123.264 671.868,123.609 671.708,123.941C671.495,124.384 671.233,124.803 670.926,125.187C670.584,125.616 670.189,126.001 669.752,126.331C669.173,126.769 668.524,127.109 667.84,127.348C666.996,127.642 666.104,127.781 665.212,127.796C664.28,127.813 663.348,127.696 662.441,127.488C661.202,127.205 660.005,126.754 658.865,126.197C657.551,125.555 656.309,124.77 655.149,123.882C654.067,123.053 653.053,122.133 652.129,121.13C651.358,120.293 650.648,119.396 650.026,118.442C649.559,117.725 649.14,116.974 648.792,116.191C648.019,114.452 647.579,112.507 647.888,110.606C647.936,110.307 648.003,110.011 648.089,109.721C648.193,109.367 648.325,109.022 648.485,108.69C648.675,108.297 648.902,107.923 649.165,107.576C649.497,107.137 649.884,106.741 650.314,106.399C650.846,105.976 651.442,105.637 652.073,105.387C652.656,105.157 653.268,105.003 653.888,104.917C654.206,104.874 654.526,104.85 654.846,104.838C654.981,104.834 655.116,104.833 655.251,104.833Z" style="fill:white;"/>
        <path d="M666.846,88.943C667.027,88.956 667.073,88.956 667.253,88.983C667.481,89.018 667.708,89.071 667.932,89.125C668.228,89.195 668.521,89.272 668.813,89.355C669.878,89.656 670.924,90.026 671.944,90.453C674.301,91.439 676.537,92.743 678.497,94.387C680.514,96.08 682.226,98.122 683.629,100.346C684.18,101.218 684.685,102.121 685.134,103.05C685.29,103.372 685.439,103.698 685.578,104.027C685.673,104.253 685.765,104.481 685.831,104.718C686.07,105.574 686.015,106.5 685.676,107.321C685.572,107.573 685.442,107.814 685.289,108.04C685.187,108.19 685.156,108.224 685.043,108.366L672.991,122.729C672.852,122.886 672.711,123.037 672.553,123.175C672.238,123.449 671.88,123.673 671.497,123.837C671.049,124.028 670.566,124.136 670.08,124.155C669.593,124.174 669.104,124.102 668.643,123.946C668.247,123.812 667.874,123.616 667.539,123.367C667.26,123.159 667.008,122.915 666.792,122.643C666.141,121.821 665.835,120.754 665.952,119.711C665.998,119.297 666.11,118.89 666.282,118.509C666.361,118.334 666.455,118.169 666.556,118.006C666.544,117.93 666.526,117.856 666.507,117.782C666.4,117.389 666.232,117.014 666.041,116.656C665.774,116.156 665.457,115.684 665.111,115.235C664.487,114.426 663.766,113.692 662.988,113.031C662.224,112.381 661.399,111.798 660.52,111.314C659.929,110.988 659.311,110.704 658.667,110.501C658.249,110.368 657.812,110.261 657.371,110.248C657.343,110.248 657.343,110.248 657.316,110.248L657.311,110.248L657.192,110.353C657.029,110.485 656.865,110.61 656.685,110.719C656.21,111.008 655.675,111.197 655.123,111.269C654.709,111.322 654.287,111.311 653.877,111.235C653.261,111.121 652.675,110.861 652.177,110.48C651.679,110.1 651.274,109.603 651.002,109.038C650.821,108.662 650.699,108.258 650.643,107.845C650.577,107.363 650.6,106.869 650.71,106.395C650.805,105.988 650.963,105.597 651.178,105.24C651.287,105.06 651.411,104.895 651.542,104.731L663.594,90.368C663.639,90.317 663.683,90.264 663.729,90.214C663.868,90.065 664.019,89.926 664.179,89.799C664.661,89.419 665.23,89.152 665.83,89.025C666.03,88.983 666.234,88.956 666.438,88.945C666.506,88.941 666.574,88.941 666.642,88.939C666.71,88.94 666.778,88.942 666.846,88.943Z" style="fill:white;"/>
        <path d="M687.332,64.589C687.401,64.595 687.47,64.599 687.538,64.607C687.744,64.63 687.948,64.668 688.148,64.723C688.481,64.814 688.802,64.948 689.101,65.121C689.26,65.213 689.296,65.242 689.448,65.346C689.787,65.593 690.125,65.843 690.461,66.093C692.729,67.791 694.957,69.541 697.134,71.354C698.738,72.691 700.313,74.062 701.863,75.461C702.937,76.43 703.998,77.413 705.043,78.413L705.195,78.56C705.324,78.691 705.359,78.722 705.477,78.862C705.655,79.074 705.811,79.303 705.941,79.547C706.203,80.034 706.361,80.574 706.404,81.125C706.448,81.676 706.375,82.234 706.193,82.756C706.08,83.082 705.923,83.393 705.73,83.679C705.627,83.831 705.595,83.865 705.481,84.009L693.429,98.372C693.307,98.509 693.279,98.546 693.148,98.674C692.852,98.961 692.511,99.201 692.142,99.384C691.834,99.537 691.507,99.65 691.17,99.719C690.086,99.942 688.935,99.698 688.036,99.053C687.644,98.773 687.305,98.422 687.038,98.022C686.899,97.814 686.787,97.59 686.663,97.373C686.585,97.239 686.506,97.105 686.426,96.972C685.697,95.789 684.875,94.664 683.967,93.612C683.16,92.676 682.285,91.796 681.338,91.001C680.019,89.895 678.564,88.953 677.04,88.156C676.43,87.838 675.808,87.54 675.175,87.273C674.729,87.085 674.279,86.901 673.819,86.753L673.625,86.685C673.455,86.616 673.411,86.602 673.247,86.519C672.879,86.334 672.54,86.092 672.245,85.804C671.454,85.029 671.014,83.938 671.045,82.832C671.055,82.489 671.109,82.147 671.206,81.817C671.322,81.422 671.5,81.044 671.731,80.703C671.834,80.551 671.865,80.517 671.979,80.374L684.032,66.011C684.077,65.959 684.122,65.906 684.169,65.856C684.31,65.704 684.463,65.564 684.626,65.436C685.115,65.052 685.693,64.785 686.302,64.662C686.505,64.62 686.711,64.595 686.918,64.586C686.987,64.583 687.056,64.583 687.125,64.582C687.194,64.584 687.263,64.587 687.332,64.589Z" style="fill:white;"/>
        <path d="M707.311,40.681C707.515,40.694 707.714,40.712 707.915,40.751C708.313,40.828 708.699,40.966 709.055,41.159C709.234,41.255 709.405,41.365 709.566,41.487C709.62,41.528 709.672,41.572 709.725,41.614L725.046,54.47C725.181,54.589 725.217,54.616 725.343,54.745C725.578,54.988 725.783,55.26 725.95,55.553C726.251,56.082 726.429,56.679 726.467,57.286C726.505,57.894 726.402,58.508 726.168,59.07C726.064,59.319 725.935,59.558 725.783,59.782C725.682,59.931 725.651,59.964 725.539,60.105L713.486,74.468C713.367,74.603 713.34,74.639 713.211,74.765C712.968,75 712.696,75.205 712.403,75.372C711.874,75.674 711.277,75.852 710.67,75.889C710.062,75.927 709.448,75.824 708.886,75.59C708.637,75.487 708.398,75.357 708.174,75.206C708.025,75.104 707.992,75.073 707.851,74.961L692.53,62.105C692.395,61.986 692.359,61.959 692.233,61.83C691.998,61.587 691.793,61.315 691.626,61.022C691.325,60.493 691.147,59.896 691.109,59.289C691.071,58.681 691.174,58.067 691.408,57.505C691.512,57.256 691.641,57.017 691.793,56.793C691.894,56.644 691.925,56.611 692.037,56.47L704.09,42.107C704.134,42.056 704.178,42.004 704.224,41.955C704.362,41.806 704.511,41.668 704.67,41.543C705.147,41.165 705.71,40.898 706.304,40.769C706.502,40.726 706.704,40.698 706.906,40.686C706.974,40.681 707.041,40.681 707.109,40.678C707.176,40.679 707.244,40.68 707.311,40.681Z" style="fill:white;"/>
        <path d="M619.344,149.338C619.67,149.345 619.996,149.364 620.321,149.401C621.043,149.482 621.759,149.635 622.455,149.847C623.481,150.159 624.47,150.58 625.416,151.085C626.987,151.924 628.441,152.983 629.744,154.195C631.244,155.589 632.556,157.202 633.512,159.016C633.665,159.305 633.805,159.601 633.935,159.9C634.602,161.44 634.974,163.146 634.736,164.824C634.696,165.104 634.639,165.383 634.565,165.656C634.474,165.991 634.356,166.319 634.213,166.635C634.065,166.964 633.888,167.279 633.686,167.577C633.597,167.708 633.502,167.833 633.406,167.957C633.133,168.291 632.853,168.619 632.576,168.949C632.457,169.084 632.429,169.12 632.301,169.245C632.107,169.433 631.895,169.602 631.668,169.747C631.431,169.899 631.177,170.018 630.918,170.129C630.646,170.245 630.37,170.354 630.093,170.46C629.38,170.733 628.654,170.975 627.922,171.194C625.058,172.049 622.067,172.545 619.074,172.535C618.331,172.532 617.588,172.498 616.848,172.429C616.657,172.411 616.467,172.391 616.277,172.368C616.091,172.346 615.905,172.32 615.719,172.299C615.627,172.29 615.534,172.282 615.442,172.276C614.599,172.231 613.756,172.314 612.927,172.459C612.026,172.618 611.138,172.85 610.265,173.124C608.862,173.564 607.494,174.113 606.16,174.729C605.604,174.985 605.055,175.254 604.512,175.535C604.127,175.734 603.745,175.939 603.37,176.156L603.181,176.258C603.116,176.289 603.052,176.322 602.987,176.351C602.856,176.409 602.722,176.459 602.585,176.503C602.108,176.656 601.602,176.717 601.101,176.684C600.672,176.655 600.249,176.557 599.851,176.394C598.851,175.984 598.045,175.167 597.648,174.162C597.516,173.829 597.43,173.478 597.391,173.122C597.338,172.623 597.379,172.115 597.512,171.632C597.626,171.217 597.807,170.822 598.046,170.465C598.153,170.306 598.185,170.271 598.304,170.122C603.479,163.954 608.617,157.755 613.83,151.619C614.137,151.272 614.472,150.955 614.845,150.679C615.614,150.111 616.507,149.726 617.439,149.522C617.943,149.412 618.455,149.357 618.971,149.34C619.095,149.338 619.219,149.337 619.344,149.338Z" style="fill:white;"/>
        <g transform="matrix(1,0,0,1,275.645,-241.627)">
            <text x="156.883px" y="463.086px" style="font-family:'GloriaHallelujah', 'Gloria Hallelujah';font-size:54px;fill:white;">Schrijf een eind op!</text>
        </g>
    </g>
</svg>
